<svg width="32" height="32" viewBox="0 0 32 32" fill="none" xmlns="http://www.w3.org/2000/svg">
<path d="M11.7333 24.5184L12.6208 23.9253C12.5232 23.7795 12.3912 23.66 12.2364 23.5773C12.0816 23.4947 11.9088 23.4516 11.7333 23.4517V24.5184ZM16 30.9141L15.1125 31.5051C15.2099 31.6512 15.3419 31.7709 15.4967 31.8538C15.6515 31.9366 15.8244 31.98 16 31.98C16.1756 31.98 16.3485 31.9366 16.5033 31.8538C16.6581 31.7709 16.7901 31.6512 16.8875 31.5051L16 30.9141ZM20.2667 24.5184V23.4517C20.0912 23.4516 19.9184 23.4947 19.7636 23.5773C19.6088 23.66 19.4768 23.7795 19.3792 23.9253L20.2667 24.5184ZM10.8459 25.1093L15.1125 31.5051L16.8875 30.3211L12.6208 23.9253L10.8459 25.1093ZM16.8875 31.5051L21.1541 25.1093L19.3792 23.9253L15.1125 30.3211L16.8875 31.5051ZM20.2667 25.5851H28.8V23.4517H20.2667V25.5851ZM28.8 25.5851C30.5685 25.5851 32 24.1557 32 22.3851H29.8667C29.8667 22.976 29.3909 23.4517 28.8 23.4517V25.5851ZM32 22.3851V3.2H29.8667V22.3872H32V22.3851ZM32 3.2C32 1.42933 30.5685 0 28.8 0V2.13333C29.3909 2.13333 29.8667 2.60907 29.8667 3.2H32ZM28.8 0H3.2V2.13333H28.8V0ZM3.2 0C1.43147 0 0 1.42933 0 3.2H2.13333C2.13333 2.60907 2.60907 2.13333 3.2 2.13333V0ZM0 3.2V22.3851H2.13333V3.2H0ZM0 22.3851C0 24.1557 1.43147 25.5851 3.2 25.5851V23.4517C3.05984 23.452 2.92101 23.4246 2.79147 23.3711C2.66193 23.3176 2.54423 23.239 2.44513 23.1399C2.34602 23.0408 2.26746 22.9231 2.21396 22.7936C2.16045 22.6641 2.13305 22.5252 2.13333 22.3851H0ZM3.2 25.5851H11.7333V23.4517H3.2V25.5851ZM10.6667 14.9333H21.3333V12.8H10.6667V14.9333Z" fill="black"/>
</svg>
