<svg width="24" height="25" viewBox="0 0 24 25" fill="none" xmlns="http://www.w3.org/2000/svg">
<path fill-rule="evenodd" clip-rule="evenodd" d="M10.4 0.533333C10.8616 0.187141 11.423 0 12 0C12.577 0 13.1384 0.187141 13.6 0.533333L22.9333 7.53333C23.2645 7.78173 23.5333 8.10382 23.7185 8.4741C23.9036 8.84438 24 9.25268 24 9.66667V22.3333C24 23.0406 23.719 23.7189 23.219 24.219C22.7189 24.719 22.0406 25 21.3333 25H14.8C14.411 25 14.038 24.8455 13.7629 24.5704C13.4879 24.2954 13.3333 23.9223 13.3333 23.5333V15.6667C13.3333 15.313 13.1929 14.9739 12.9428 14.7239C12.6928 14.4738 12.3536 14.3333 12 14.3333C11.6464 14.3333 11.3072 14.4738 11.0572 14.7239C10.8071 14.9739 10.6667 15.313 10.6667 15.6667V23.5333C10.6667 23.7259 10.6287 23.9167 10.555 24.0946C10.4813 24.2725 10.3733 24.4342 10.2371 24.5704C10.1009 24.7066 9.93921 24.8147 9.76127 24.8884C9.58332 24.9621 9.39261 25 9.2 25H2.66667C1.95942 25 1.28115 24.719 0.781048 24.219C0.280951 23.7189 0 23.0406 0 22.3333V9.66667C0 9.25268 0.096387 8.84438 0.281528 8.4741C0.466668 8.10382 0.735477 7.78173 1.06667 7.53333L10.4 0.533333ZM12 2.66667L2.66667 9.66667V22.3333H8V15.6667C8 14.6058 8.42143 13.5884 9.17157 12.8382C9.92172 12.0881 10.9391 11.6667 12 11.6667C13.0609 11.6667 14.0783 12.0881 14.8284 12.8382C15.5786 13.5884 16 14.6058 16 15.6667V22.3333H21.3333V9.66667L12 2.66667Z" fill="#5AC7CC"/>
</svg>
