<svg width="24" height="24" viewBox="0 0 24 24" fill="none" xmlns="http://www.w3.org/2000/svg">
<path d="M1 19.6666C1 18.2521 1.5619 16.8955 2.5621 15.8953C3.56229 14.8952 4.91885 14.3333 6.33333 14.3333H17C18.4145 14.3333 19.771 14.8952 20.7712 15.8953C21.7714 16.8955 22.3333 18.2521 22.3333 19.6666C22.3333 20.3738 22.0524 21.0521 21.5523 21.5522C21.0522 22.0523 20.3739 22.3333 19.6667 22.3333H3.66667C2.95942 22.3333 2.28115 22.0523 1.78105 21.5522C1.28095 21.0521 1 20.3738 1 19.6666Z" stroke="black" stroke-width="2" stroke-linejoin="round"/>
<path d="M11.6665 9C13.8756 9 15.6665 7.20914 15.6665 5C15.6665 2.79086 13.8756 1 11.6665 1C9.45736 1 7.6665 2.79086 7.6665 5C7.6665 7.20914 9.45736 9 11.6665 9Z" stroke="black" stroke-width="2"/>
</svg>
